<svg width="10" height="10" viewBox="0 0 10 10" fill="none" xmlns="http://www.w3.org/2000/svg">
<path d="M0.934147 8.00519C0.641254 8.29809 0.641254 8.77296 0.934147 9.06585C1.22704 9.35875 1.70191 9.35875 1.99481 9.06585L0.934147 8.00519ZM9.28554 1.46446C9.28555 1.05024 8.94976 0.714455 8.53554 0.714455L1.78555 0.714455C1.37133 0.714455 1.03555 1.05024 1.03555 1.46445C1.03555 1.87867 1.37133 2.21445 1.78555 2.21445H7.78555V8.21445C7.78555 8.62867 8.12133 8.96445 8.53555 8.96445C8.94976 8.96445 9.28555 8.62867 9.28555 8.21445L9.28554 1.46446ZM1.99481 9.06585L9.06588 1.99478L8.00522 0.934125L0.934147 8.00519L1.99481 9.06585Z" fill="#5D37F3"/>
</svg>
